<svg width="400" height="200" xmlns="http://www.w3.org/2000/svg" xmlns:xlink="http://www.w3.org/1999/xlink"><defs><path id="a" d="M.06 0H400v200H.06z"/></defs><g fill="none" fill-rule="evenodd"><path d="M208.26 135.018c-20.061 0-31.13-11.887-31.13-26.702 0-6.029.279-50.82.279-50.82-6.56 0-9.791-3.446-9.791-7.752 0-4.307 3.42-8.291 9.034-8.291 0 0 .011-14.976.011-21.178 0-7.064 5.482-12.921 12.573-12.921 7.092 0 12.723 5.857 12.723 12.921 0 5.34-.465 12.703-.446 20.861.589-.007 5.654-.007 13.089-.094 6.896-.081 9.705 3.771 9.705 8.594 0 4.823-3.713 8.189-8.554 8.209-4.487.018-14.398-.037-14.398-.037-.451 14.284-.877 31.505-.877 45.286 0 4.97 3.43 10.65 11.732 10.65 19.023 0 24.507-19.204 24.507-55.387 0-4.823 3.807-8.613 8.651-8.613 4.841 0 8.646 3.79 8.646 8.613 0 47.375-12.029 76.661-45.754 76.661" fill="#FF6116"/><mask id="b" fill="#fff"><use xlink:href="#a"/></mask><path d="M289.484 59.198c.016-.028 8.1-5.54 12.942-5.54 4.843 0 4.136.846 4.136 5.669 0 51.682-9.354 75.804-42.806 75.804-14.538 0-28.109-10.854-28.109-24.119 0-5.168.866-15.504.866-20.672 0-49.959-.775-60.518-.775-75.161 0-7.063 5.881-13.377 12.971-13.377 7.093 0 12.324 5.669 12.324 12.732 0 14.643-1.582 35.943-2.038 91.096-.038 4.614 2.214 7.864 8.191 7.864 18.678 0 21.566-23.665 22.298-54.296" fill="#FF6116" mask="url(#b)"/><path d="M353.186 154.539c-15.953 3.443-35.938 8.471-35.706 18.295.218 9.212 9.73 10.888 17.659 9.25 16.469-3.404 18.382-13.314 18.047-27.545Zm-3.076-28.3s-7.029 9.217-24.841 8.772c-23.622-.591-34.569-19.343-35.728-38.633-.878-14.617-.481-24.952-.481-34.426 0-7.063 4.705-12.78 11.798-12.78 7.091 0 11.26 5.857 11.26 12.92 0 9.474-.582 17.794-.685 28.129-.124 12.469 4.136 23.453 14.513 23.423 9.962-.029 20.903-4.223 21.169-25.58.129-10.335-.223-16.498-.223-25.972 0-7.063 4.922-12.92 12.015-12.92 7.088 0 12.015 5.857 12.015 12.92 0 9.474-.775 18.862-.775 33.505 0 0-.435 29.58.604 36.127 3.253-1.083 7.947-4.263 12.919-11.97 3.002-4.653 8.741-5.65 12.278-3.59 4.869 2.837 4.695 8.381 2.875 12.431-4.7 10.455-10.811 16.854-26.263 22.15.048 17.734-1.187 43.897-33.974 48.626-28.079 4.049-40.78-12.235-40.822-26.091-.067-21.879 21.798-28.251 53.358-36.198l-1.012-10.843ZM125.727 111.02c0-6.029-.672-54.517-.672-54.517 0-7.063 4.556-13.045 11.647-13.045s11.801 6.388 11.549 13.131c-.851 22.708-1.195 37.655-1.195 45.563 0 4.578 2.497 11.592 9.889 11.592 17.111 0 20.642-15.854 20.642-54.13 0-4.824 4.817-8.613 9.659-8.613 4.842 0 8.647 3.789 8.647 8.613 0 57.914-10.076 75.471-42.834 75.471-13.318 0-27.332-8.391-27.332-24.065" fill="#FF6116" mask="url(#b)"/><path d="M59.069 113.361c-10.95.192-17.934-4.133-18.422-13.666-.183-3.578-.125-6.642.049-8.939 1.06-13.932 9.837-22.955 19.488-24.879 12.006-2.393 20.004 3.076 20.004 18.734 0 10.581-2.949 28.433-21.119 28.75Zm74.381-65.468c-4.697 0-5.002.973-8.115 5.848 0 21.394-2.202 44.731-29.704 57.415 18.455-33.51.495-68.534-27.796-68.534-13.587 0-21.721 4.839-27.258 9.351 0-10.359.348-28.755.348-28.755 0-12.77-4.49-22.992-20.141-23.215C11.726-.126 5.004 4.014.811 13.371-.7 16.88-.143 20.693 2.843 22.42c2.471 1.429 6.534.37 8.546-2.303 1.342-1.671 2.096-2.028 3.263-1.903 1.923.206 1.996 3.293 2.072 5.267.059 1.515 1.536 19.577.728 76.147 0 15.59 12.261 35.604 41.617 35.604 53.745 0 85.971-25.417 85.971-80.886 0-4.679-6.892-6.453-11.59-6.453Z" fill="#FF6116" mask="url(#b)"/><path d="M136.684 7.416c7.158 0 12.947 5.765 12.947 12.896 0 7.13-5.789 12.896-12.947 12.896-7.159 0-12.947-5.766-12.947-12.896 0-7.131 5.788-12.896 12.947-12.896" fill="#FF6116"/></g></svg>