<?xml version="1.0" encoding="UTF-8"?>
<svg width="400px" height="200px" viewBox="0 0 400 200" version="1.1" xmlns="http://www.w3.org/2000/svg" xmlns:xlink="http://www.w3.org/1999/xlink">
    <title>bitly_wordmark</title>
    <defs>
        <polygon id="path-1" points="0.06 7.96845579e-05 399.999919 7.96845579e-05 399.999919 200 0.06 200"></polygon>
    </defs>
    <g id="bitly_wordmark" stroke="none" stroke-width="1" fill="none" fill-rule="evenodd">
        <path d="M208.26,135.018 C188.199,135.018 177.13,123.131 177.13,108.316 C177.13,102.287 177.409,57.496 177.409,57.496 C170.849,57.496 167.618,54.05 167.618,49.744 C167.618,45.437 171.038,41.453 176.652,41.453 C176.652,41.453 176.663,26.477 176.663,20.275 C176.663,13.211 182.145,7.354 189.236,7.354 C196.328,7.354 201.959,13.211 201.959,20.275 C201.959,25.615 201.494,32.978 201.513,41.136 C202.102,41.129 207.167,41.129 214.602,41.042 C221.498,40.961 224.307,44.813 224.307,49.636 C224.307,54.459 220.594,57.825 215.753,57.845 C211.266,57.863 201.355,57.808 201.355,57.808 C200.904,72.092 200.478,89.313 200.478,103.094 C200.478,108.064 203.908,113.744 212.21,113.744 C231.233,113.744 236.717,94.54 236.717,58.357 C236.717,53.534 240.524,49.744 245.368,49.744 C250.209,49.744 254.014,53.534 254.014,58.357 C254.014,105.732 241.985,135.018 208.26,135.018" id="Fill-1" fill="#FF6116"></path>
        <g id="Group-7">
            <mask id="mask-2" fill="white">
                <use xlink:href="#path-1"></use>
            </mask>
            <g id="Clip-3"></g>
            <path d="M289.484,59.198 C289.5,59.17 297.584,53.658 302.426,53.658 C307.269,53.658 306.562,54.504 306.562,59.327 C306.562,111.009 297.208,135.131 263.756,135.131 C249.218,135.131 235.647,124.277 235.647,111.012 C235.647,105.844 236.513,95.508 236.513,90.34 C236.513,40.381 235.738,29.822 235.738,15.179 C235.738,8.116 241.619,1.802 248.709,1.802 C255.802,1.802 261.033,7.471 261.033,14.534 C261.033,29.177 259.451,50.477 258.995,105.63 C258.957,110.244 261.209,113.494 267.186,113.494 C285.864,113.494 288.752,89.829 289.484,59.198" id="Fill-2" fill="#FF6116" mask="url(#mask-2)"></path>
            <path d="M353.186,154.539 C337.233,157.982 317.248,163.01 317.48,172.834 C317.698,182.046 327.21,183.722 335.139,182.084 C351.608,178.68 353.521,168.77 353.186,154.539 Z M350.11,126.239 C350.11,126.239 343.081,135.456 325.269,135.011 C301.647,134.42 290.7,115.668 289.541,96.378 C288.663,81.761 289.06,71.426 289.06,61.952 C289.06,54.889 293.765,49.172 300.858,49.172 C307.949,49.172 312.118,55.029 312.118,62.092 C312.118,71.566 311.536,79.886 311.433,90.221 C311.309,102.69 315.569,113.674 325.946,113.644 C335.908,113.615 346.849,109.421 347.115,88.064 C347.244,77.729 346.892,71.566 346.892,62.092 C346.892,55.029 351.814,49.172 358.907,49.172 C365.995,49.172 370.922,55.029 370.922,62.092 C370.922,71.566 370.147,80.954 370.147,95.597 C370.147,95.597 369.712,125.177 370.751,131.724 C374.004,130.641 378.698,127.461 383.67,119.754 C386.672,115.101 392.411,114.104 395.948,116.164 C400.817,119.001 400.643,124.545 398.823,128.595 C394.123,139.05 388.012,145.449 372.56,150.745 C372.608,168.479 371.373,194.642 338.586,199.371 C310.507,203.42 297.806,187.136 297.764,173.28 C297.697,151.401 319.562,145.029 351.122,137.082 L350.11,126.239 L350.11,126.239 Z" id="Fill-4" fill="#FF6116" mask="url(#mask-2)"></path>
            <path d="M125.727,111.02 C125.727,104.991 125.055,56.503 125.055,56.503 C125.055,49.44 129.611,43.458 136.702,43.458 C143.793,43.458 148.503,49.846 148.251,56.589 C147.4,79.297 147.056,94.244 147.056,102.152 C147.056,106.73 149.553,113.744 156.945,113.744 C174.056,113.744 177.587,97.89 177.587,59.614 C177.587,54.79 182.404,51.001 187.246,51.001 C192.088,51.001 195.893,54.79 195.893,59.614 C195.893,117.528 185.817,135.085 153.059,135.085 C139.741,135.085 125.727,126.694 125.727,111.02" id="Fill-5" fill="#FF6116" mask="url(#mask-2)"></path>
            <path d="M59.069,113.361 C48.119,113.553 41.135,109.228 40.647,99.695 C40.464,96.117 40.522,93.053 40.696,90.756 C41.756,76.824 50.533,67.801 60.184,65.877 C72.19,63.484 80.188,68.953 80.188,84.611 C80.188,95.192 77.239,113.044 59.069,113.361 Z M133.45,47.893 C128.753,47.893 128.448,48.866 125.335,53.741 C125.335,75.135 123.133,98.472 95.631,111.156 C114.086,77.646 96.126,42.622 67.835,42.622 C54.248,42.622 46.114,47.461 40.577,51.973 C40.577,41.614 40.925,23.218 40.925,23.218 C40.925,10.448 36.435,0.226 20.784,0.003 C11.726,-0.126 5.004,4.014 0.811,13.371 C-0.7,16.88 -0.143,20.693 2.843,22.42 C5.314,23.849 9.377,22.79 11.389,20.117 C12.731,18.446 13.485,18.089 14.652,18.214 C16.575,18.42 16.648,21.507 16.724,23.481 C16.783,24.996 18.26,43.058 17.452,99.628 C17.452,115.218 29.713,135.232 59.069,135.232 C112.814,135.232 145.04,109.815 145.04,54.346 C145.04,49.667 138.148,47.893 133.45,47.893 L133.45,47.893 Z" id="Fill-6" fill="#FF6116" mask="url(#mask-2)"></path>
        </g>
        <path d="M136.684,7.416 C143.842,7.416 149.631,13.181 149.631,20.312 C149.631,27.442 143.842,33.208 136.684,33.208 C129.525,33.208 123.737,27.442 123.737,20.312 C123.737,13.181 129.525,7.416 136.684,7.416" id="Fill-8" fill="#FF6116"></path>
    </g>
</svg>